<svg width="42" height="32" viewBox="0 0 42 32" fill="#E5E5E5" xmlns="http://www.w3.org/2000/svg">
<path d="M21.6275 7.28788V15.6626L23.9683 12.275L21.6275 7.28788Z"/>
<path d="M23.0119 17.6892L26.8202 18.9902L30.6285 15.087L23.0119 17.6892Z"/>
<path d="M22.6334 18.9345L26.4228 20.2291L27.3173 25.7132L22.6334 18.9345Z"/>
<path d="M20.3725 23.9228V19.7157L15.6689 26.5229L20.3725 23.9228Z"/>
<path d="M18.9881 17.6892L15.1798 18.9902L11.3715 15.087L18.9881 17.6892Z"/>
<path fill-rule="evenodd" clip-rule="evenodd" d="M21 0L25.9443 10.5337L37 12.2229L29 20.4223L30.8885 32L21 26.5337L11.1115 32L13 20.4223L5 12.2229L16.0557 10.5337L21 0ZM25.1072 11.726L34.3226 13.134L27.6533 19.9695L29.2244 29.6012L21 25.0548L12.7756 29.6012L14.3467 19.9695L7.67741 13.134L16.1776 11.8352L19.8567 15.9936L17.1993 11.0729L21 2.97555L25.1072 11.726Z"/>
</svg>
