<svg width="42" height="32" viewBox="0 0 42 32" fill="#E5E5E5" xmlns="http://www.w3.org/2000/svg">
<path d="M25.6723 11.4404L21.0667 2.24129L16.7102 10.9426L20.1477 16.4157L15.9028 11.5203L6.16241 12.9155L13.6145 20.076L11.8553 30.1868L21.0667 25.4131L30.278 30.1868L28.5188 20.076L35.9709 12.9155L25.6723 11.4404ZM38.1333 12.2229L29.6 20.4223L31.6144 32L21.0667 26.5337L10.5189 32L12.5333 20.4223L4 12.2229L15.7928 10.5337L21.0667 0L26.3406 10.5337L38.1333 12.2229Z"/>
<path d="M21.5698 5.4874V16.1627L24.7526 11.8445L21.5698 5.4874Z"/>
<path d="M32.9944 14.3903L22.6948 17.6891L27.8446 19.3385L32.9944 14.3903Z"/>
<path d="M27.5337 20.2819L22.3839 18.6325L28.7494 27.269L27.5337 20.2819Z"/>
<path d="M20.5635 24.5531V19.2155L14.1981 27.8519L20.5635 24.5531Z"/>
<path d="M14.2887 19.3385L19.4385 17.6891L9.13895 14.3903L14.2887 19.3385Z"/>
</svg>
